<?xml version="1.0" encoding="UTF-8"?>
<svg id="Layer_1" data-name="Layer 1" xmlns="http://www.w3.org/2000/svg" viewBox="0 0 525.1 340.12">
  <g id="PC8kIO.tif">
    <g>
      <path d="M178.41,51.83c4.04-.67,7.8-1.48,11.61-1.89,4.78-.52,9.59-.71,14.38-1.04,4.93-.33,9.86-.77,14.8-.95,4.05-.14,8.11-.08,12.16,.1,4.52,.2,9.03,.56,13.53,.99,3.02,.29,6.12,.47,8.97,1.37,2,.63,3.69,2.34,5.37,3.75,.35,.29,.33,1.53,.01,2.01-.38,.56-1.36,1.17-1.94,1.05-2.46-.48-4.54,.37-6.81,1.08-2.04,.63-4.41,.19-6.64,.21-6.44,.05-12.88,.05-19.32,.15-6.88,.11-13.72,.69-20.51,1.91-6.23,1.11-12.57,1.73-18.73,3.14-3.98,.91-7.75,2.78-11.57,4.34-.84,.34-1.54,1.1-2.2,1.78-3.29,3.37-4.65,3.6-8.89,1.27-.61,1.25-1.23,2.48-1.81,3.73-.92,1.99-1.86,3.97-2.71,5.99-1.13,2.67-2.08,5.43-3.3,8.06-1.65,3.53-3.53,6.95-5.23,10.47-1.02,2.12-1.9,4.31-2.78,6.49-1.94,4.83-4,9.61-5.67,14.53-.67,1.98-.63,4.28-.58,6.42,.06,2.8,2.57,4.83,5.42,5.19,5.38,.68,10.69,.3,15.97-.69,5.57-1.05,11.12-2.24,16.68-3.35,3.32-.66,6.63-1.37,9.96-1.89,1.66-.26,3.46,.15,5.06-.27,4.83-1.26,9.72-2.43,14.33-4.29,4.76-1.92,9.21-4.63,13.82-6.94,.54-.27,1.37-.49,1.84-.26,1.91,.92,3.21,.3,4.35-1.28,2.62-3.62,5.13-7.32,7.95-10.78,5.82-7.14,11-14.79,17.87-21.09,5.18-4.75,9.71-10.19,14.68-15.18,1.29-1.3,3.15-2.03,4.73-3.05,3.25-2.1,4.56-5.61,6.45-8.73,1.71-2.83,3.74-5.47,5.53-8.25,.79-1.23,1.53-2.55,1.99-3.94,1.1-3.34,2.58-4.48,5.96-3.95,2.08,.33,4.2,.77,6.13,1.56,.94,.39,1.65,1.62,2.2,2.61,2.33,4.22,1.63,8.86,1.06,13.23-.74,5.6-2.42,11.07-3.64,16.61-.94,4.27-1.82,8.56-2.69,12.85-.63,3.11-1.1,6.26-1.77,9.36-.9,4.11-.2,5.11,4,4.92,3.3-.15,6.59-.65,9.89-.81,4.01-.19,7.89-1.75,12.01-.93,1.15,.23,1.62,.62,1.92,1.63,.74,2.48-.56,5-2.96,5.74-.89,.28-1.89,.55-2.56,1.14-3.01,2.64-6.69,2.81-10.38,3.1-.79,.06-1.54,.47-2.33,.65-3.71,.88-7.43,1.69-11.11,2.67-.55,.15-1.18,1.09-1.25,1.72-.79,6.49-1.34,13.01-2.25,19.49-.55,3.9-1.48,7.75-2.48,11.56-1.27,4.86-2.65,9.71-4.26,14.47-.76,2.23-2.01,4.35-3.34,6.31-2.83,4.16-6.24,4.33-10.55,1.87-2.55-1.46-2.86-3.91-4.22-5.85-.87-1.24,1.34-4.46,2.63-3.96,2.5,.98,2.89-1.22,3.65-2.35,.88-1.29,1.2-3,1.61-4.56,.37-1.43,.48-2.92,.81-4.36,.81-3.58,1.84-7.13,2.49-10.74,.55-3.04,.25-6.29,1.13-9.2,1.22-4.03,.21-8.02,.65-12,.14-1.22-.89-1.39-1.94-1.53-4.87-.66-9.74-1.33-14.58-2.17-1.55-.27-3.02-1.06-4.89-1.74-1.23,2.11-2.59,4.5-4.01,6.84-2.63,4.34-5.31,8.66-7.96,12.99-.92,1.51-1.82,3.04-2.75,4.55-1.21,1.97-2.3,4.03-3.69,5.86-3.52,4.65-6.97,9.38-10.87,13.7-1.9,2.11-4.37,4.02-7.64,4.16-2.55,.1-5.75-1.69-6.68-4.02-.12-.3-.12-.7-.33-.92-4.62-4.88-3.46-9.99-.65-15.17,1.18-2.18,2.41-4.32,3.86-6.92-.95,.13-1.52,.09-1.99,.29-2.78,1.13-5.52,2.33-8.3,3.46-2.12,.86-4.24,1.75-6.42,2.43-5.57,1.75-11.14,3.46-16.76,5.04-4.24,1.19-8.49,2.44-12.82,3.16-4.5,.74-9.1,1.05-13.67,1.2-3.21,.1-6.47-.15-9.63-.69-2.22-.38-4.4-1.31-6.44-2.33-6-2.98-9.32-8.35-12.55-13.94-1.93-3.34-2.21-6.79-1.92-10.29,.18-2.18,1.04-4.55,2.3-6.34,4.2-5.94,7.5-12.31,10.53-18.91,2.9-6.32,6.49-12.32,9.62-18.54,3.04-6.06,5.88-12.21,8.8-18.33,1.69-3.54,3.38-7.09,5.01-10.66,1.21-2.65,2.32-5.33,3.49-8,.13-.3,.28-.61,.48-.88,3.52-4.63,5.99-9.84,8.54-15.03,.67-1.36,1.89-2.79,3.22-3.38,1.17-.53,2.87-.07,4.29,.18,1.73,.31,3.02,1.19,4.01,2.86,1.02,1.72,2.94,1.24,4.58,.67,3.28-1.14,6.51-2.45,9.84-3.41,4.27-1.22,8.6-2.24,12.94-3.2,3.97-.88,7.98-1.6,11.99-2.3,1.54-.27,3.11-.35,4.67-.43,4.3-.22,8.65-.85,12.89-.44,2.97,.29,5.91,1.82,8.65,3.21,1.68,.85,1.4,4.24,.17,5.73-1.72,2.09-3.58,2.33-6.11,1.62-1.6-.45-3.48-.16-5.18,.12-4.66,.76-9.29,1.67-13.93,2.57-3.39,.66-6.82,1.2-10.14,2.14-4.05,1.14-8.05,2.51-11.98,4.01-4.91,1.87-9.72,3.99-14.6,5.96-1.35,.55-2.74,1.09-4.16,1.35-3.46,.63-4.76,2.93-5.22,6.1-.22,1.5-.72,2.95-1.04,4.43-.13,.61-.11,1.25-.17,1.97Zm84.83,45.35c1.2,.35,1.82,.6,2.47,.7,4.25,.61,8.5,1.22,12.76,1.76,1.69,.21,3.57-2.82,3.01-4.58-.34-1.05-.65-2.18-.59-3.26,.1-1.74,.57-3.45,.79-5.19,.56-4.34,1.07-8.68,1.62-13.01,.11-.83,.36-1.65,.65-2.91-.92,.38-1.29,.49-1.63,.68-3.6,2.03-5.89,5.3-8.15,8.6-.8,1.16-1.48,2.4-2.24,3.58-2.81,4.41-5.63,8.82-8.69,13.62Z"/>
      <path d="M378.45,273.47c-2.3,2.48-4.68,4.9-6.88,7.47-1.96,2.29-3.78,4.7-5.56,7.13-1.14,1.56-2.1,3.26-3.13,4.9-.21,.34-.32,.85-.62,1.01-3.01,1.6-3.93,4.86-5.88,7.29-1.25,1.56-2.63,3.04-3.83,4.64-1.4,1.86-2.61,3.87-4,5.73-3.12,4.17-6.23,8.35-9.49,12.41-.8,1-2.07,1.74-3.27,2.28-.68,.3-1.84,.24-2.46-.16-2.17-1.43-4.27-3-6.26-4.67-.92-.77-1.51-.88-2.66-.4-4.4,1.86-8.85,3.6-13.35,5.21-1.26,.45-2.74,.24-4.1,.43-2.6,.36-5.21,1.17-7.79,1.08-4.05-.14-8.09-.85-12.13-1.34-.6-.07-1.18-.29-1.77-.41-4-.79-7.66-2.31-10.95-4.79-1.91-1.44-4.36-2.25-6.06-3.87-2.52-2.41-4.6-5.29-6.86-7.98-.04-.05-.03-.16-.07-.19-2.51-1.46-2.81-4.35-4.14-6.56-1.8-2.99-2.04-6.37-.93-9.71,.93-2.81,2-5.58,3.06-8.34,2.32-6,4.62-12,7.03-17.96,1.47-3.64,3.13-7.21,4.72-10.81,.11-.24,.21-.54,.41-.69,3.11-2.33,3.38-6.42,5.7-9.23,.08-.09,.02-.3,.09-.39,2.03-2.2,4.07-4.4,6.14-6.63-2.24-3.75,.61-6.39,3.61-7.53,2.31-.88,4.43-2.21,6.67-3.27,1.2-.57,2.43-1.14,3.71-1.5,5.55-1.58,11.05-3.61,16.72-4.49,7.87-1.23,15.9-1.21,23.85-.24,4.35,.53,8.64,1.54,12.97,2.3,3.1,.54,6.44,4.96,5.94,8.46-.15,1.03-2.82,2.73-3.95,2.67-4.91-.27-9.82-.59-14.73-.68-1.73-.03-3.46,.63-5.2,.85-5.8,.76-11.66,1.17-17.39,2.29-4.61,.9-9.06,2.63-13.59,3.96-2.03,.6-4.1,1.03-6.09,1.74-.63,.23-1.16,1.04-1.51,1.7-.71,1.32-1.02,2.93-1.94,4.06-2.92,3.58-5.82,7.12-7.65,11.44-.91,2.15-2.11,4.18-3.13,6.28-.49,1-.89,2.06-1.56,3.64,2.31-.43,4.17-.47,5.75-1.14,1.92-.81,3.77-1.5,5.88-1.78,2.84-.37,5.61-1.32,8.44-1.79,2.1-.35,4.27-.27,6.39-.52,1.65-.2,3.27-.75,4.92-.89,3.66-.32,7.32-.59,10.99-.69,2.72-.07,5.45,.11,8.17,.27,1.73,.1,2.61,1.59,1.79,3.13-.92,1.72-2.05,3.33-3.15,4.95-.2,.29-.67,.46-1.05,.57-5,1.33-10.01,2.58-14.99,3.98-2.18,.61-4.24,1.63-6.42,2.24-3.14,.87-6.39,1.35-9.48,2.35-3.99,1.28-7.86,2.95-11.81,4.38-2.6,.94-5.24,1.74-7.87,2.6-.32,.11-.66,.17-.97,.31-2.07,.9-4.03,1.87-4.26,4.54-.25,2.97-1.35,5.97-.02,8.89,1.84,4.02,3.77,8,8.72,9.17,1.01,.24,1.82,1.5,2.81,1.65,2.9,.44,5.85,.66,8.79,.76,3,.1,6-.1,9-.08,4.35,.03,8.46-1.07,12.63-2.2,3.09-.84,5.66-2.25,8.12-4.17,1.49-1.16,3.09-1.83,5.26-1.31,1.22,.29,3.08-.53,4.13-1.44,2.17-1.89,4.01-4.16,5.97-6.29,.91-.99,1.85-1.97,2.68-3.03,2.51-3.23,5.05-6.44,7.43-9.77,3.11-4.36,6.16-8.77,9.09-13.25,1.97-3.01,3.66-6.2,5.52-9.27,1.66-2.74,3.32-5.5,5.14-8.13,1.62-2.34,3.64-4.42,5.15-6.82,1.15-1.83,1.77-3.99,2.6-6.01,.38-.93,.54-2.01,1.09-2.81,1.95-2.86,7.47-3.08,9.98-.54,4.03,4.07,3.65,7.18,1.13,11.68-.94,1.68-1.55,3.55-2.39,5.51,.81,.24,1.34,.59,1.79,.5,2.45-.45,3.76,1.37,5.55,2.42,3.13,1.84,3.6,5.06,4.49,7.88,.63,1.98-.02,4.39-.23,6.59-.26,2.66-.62,5.32-1.04,7.96-.4,2.52-.85,5.03-1.42,7.52-.8,3.53-.07,6.89,1.04,10.66,.89-.44,1.88-.69,2.54-1.3,3.35-3.13,6.71-6.26,9.87-9.57,1.65-1.73,2.66-4.13,4.4-5.74s3.86-2.46,5.67-4.16c4.39-4.11,8.62-8.4,12.73-12.78,1.5-1.6,3-3.23,4.27-5.01,2.2-3.08,3.79-7.94,6.9-10.24,2.12-1.56,6.3-1.82,5.38,1.98-.63,2.62-1.27,5.24-2.02,7.82-.21,.74-.89,1.33-1.28,2.03-2.55,4.66-5.02,9.36-7.63,13.99-3.22,5.72-6.52,11.39-9.85,17.04-.64,1.09-1.69,1.94-2.32,3.03-1.4,2.43-2.59,4.99-3.99,7.42-.59,1.03-1.4,1.98-2.28,2.77-3.47,3.09-6.9,6.25-10.59,9.07-1.22,.93-3.16,1.03-4.8,1.27-6.17,.88-11.5-1.26-15.45-5.75-3.42-3.88-6.27-8.35-8.8-12.88-1.07-1.92-1.01-4.67-.91-7.02,.26-5.74,.86-11.46,1.32-17.19-.08-.16-.17-.32-.25-.49Z"/>
      <path d="M98.49,37.28c.44-1.25,.86-2.5,1.24-3.76,1.4-4.57,2.65-9.2,3.66-13.87,.4-1.85,.09-3.89-.12-5.82-.05-.43-1.04-1.05-1.6-1.07-7.95-.19-15.17,5.13-21.99,8.65-2.69,1.39-5.41,2.79-7.79,4.66-2.09,1.65-3.89,3.64-5.68,5.61-3.79,4.19-7.58,8.38-11.37,12.57-1.18,1.3-2.44,2.76-3.05,4.43-.51,1.39-.15,2.67-.44,4-.78,3.59-3.6,7.57-5.18,10.9-.52,1.1-1.02,2.21-1.5,3.32-2.29,5.3-4.56,10.61-6.86,15.9-1.9,4.35-3.91,8.66-5.74,13.04-.88,2.1-1.42,4.35-2.14,6.52-2.55,7.73-5.2,15.44-7.62,23.21-1.19,3.81-1.72,7.83-2.95,11.63-2.42,7.44-3.11,15.1-3.49,22.82-.1,1.94,.29,3.93,.66,5.86,.14,.71,.77,1.4,1.34,1.93,1.87,1.72,2.31,4.73,.89,6.75-1.81,2.57-4.68,3.36-7.08,1.72-1.2-.82-2.21-1.99-3.11-3.16-1.53-1.97-3.56-3.89-4.16-6.15-.78-2.93-3.31-4.68-3.81-7.85-.7-4.39-.72-8.7-.35-13.03,.43-5.04,1.08-10.07,2.02-15.04,.7-3.7,2.04-7.27,3.07-10.91,.78-2.73,1.45-5.49,2.31-8.2,1.63-5.15,3.11-10.38,5.11-15.39,3.29-8.21,6.68-16.41,10.54-24.37,3.86-7.97,8.08-15.71,14.02-22.52,3.86-4.43,6.56-9.91,9.5-15.08,4.32-7.6,8.39-15.34,12.56-23.02,1.19-2.2,2.31-4.45,3.57-6.61,1.88-3.24,2.18-3.32,5.79-2.79,.99,.15,2,.25,3.01,.3,1.89,.1,3.17,1.1,3.99,2.7,1.6,3.12,3.63,3.4,6.71,1.61,3.17-1.84,6.6-3.28,10.02-4.63,2.16-.86,4.51-1.24,6.78-1.82,3.75-.95,7.11,.31,10.1,2.31,1.68,1.12,3.01,2.86,4.24,4.52,.68,.91,.95,2.19,1.23,3.35,1.59,6.5,.39,12.86-1.27,19.14-.75,2.83-1.89,5.55-2.81,8.34-1.34,4.07-2.52,8.2-3.97,12.23-1.34,3.73-2.97,7.36-4.4,11.05-1.12,2.88-2.07,5.83-3.2,8.7-1.18,3-2.45,5.97-3.74,8.92-2.53,5.79-4.96,11.62-7.7,17.31-1.55,3.22-3.51,6.27-5.48,9.27-3.72,5.66-7.57,11.23-11.4,16.82-3.06,4.46-5.94,9.09-9.36,13.27-3.26,3.99-7.04,7.56-10.71,11.18-2.13,2.11-4.33,4.22-6.8,5.89-3.8,2.56-7.55,5.59-12.69,4.52-.42-.09-.9-.22-1.2-.5-2.32-2.19-4.49-4.5-5.89-7.43-.67-1.4-.02-3.15,1.38-3.91,4.45-2.43,8.91-4.85,13.29-7.42,2.71-1.59,5.42-3.27,7.85-5.25,2.19-1.78,4.18-3.88,5.94-6.1,2.52-3.17,4.72-6.6,7.12-9.88,1.19-1.63,2.59-3.12,3.75-4.77,2.53-3.59,4.98-7.25,7.45-10.88,.38-.56,.75-1.14,1.05-1.74,1.51-3.02,2.94-6.07,4.49-9.06,2.75-5.31,5.62-10.56,8.34-15.89,1.95-3.82,3.97-7.63,5.5-11.63,1.25-3.25,1.75-6.77,2.72-10.14,.68-2.37,1.59-4.69,2.41-7.02,.97-2.75,2.03-5.48,2.99-8.24Z"/>
      <path d="M142.87,278.16c1.76,2.89,3.25,5.59,5,8.12,.81,1.17,2.11,2,3.2,2.97,1,.89,1.89,2.01,3.04,2.61,3.13,1.65,6.3,3.29,9.6,4.54,3.86,1.46,7.83,2.73,11.86,3.63,3.11,.69,6.38,.84,9.59,.95,3.57,.13,7.19,.31,10.7-.2,3.25-.47,6.39-1.75,9.52-2.85,.63-.22,1.08-1.19,1.42-1.9,1.08-2.24,2.06-4.52,3.09-6.79,1.53-3.36,3.06-6.73,4.6-10.09,1.92-4.2,4.72-7.76,7.85-11.14,1.88-2.04,3.1-4.71,5.06-6.65,3.08-3.04,5.14-7.06,9.25-9.16,1.98-1.01,3.65-2.7,5.29-4.27,1.91-1.83,4.15-2.5,6.69-2.45,1.04,.02,3.28,2.68,3.21,3.78-.19,3.08-1.89,5.61-3.81,7.66-4.81,5.16-8.59,11.01-12.42,16.86-2.87,4.39-6.16,8.54-8.69,13.11-2.6,4.69-4.73,9.68-6.64,14.69-1.4,3.66-2.57,7.53-3.02,11.41-.38,3.26,.25,6.68,.72,9.99,.35,2.41,1.27,4.74,1.73,7.14,.13,.7-.24,1.98-.75,2.23-1.14,.55-2.72,1.19-3.75,.8-5.11-1.94-7.7-6.12-9.06-11.19-.57-2.13-1.17-4.28-1.52-6.45-.33-2.11-.35-4.26-.52-6.47-1.74,.58-3.5,1.15-5.26,1.76-5.15,1.79-10.46,1.69-15.78,1.31-3.48-.25-6.97-.58-10.41-1.14-2.56-.42-5.1-1.14-7.56-1.96-3.54-1.18-7.13-2.33-10.49-3.94-4.29-2.06-8.47-4.36-11.86-7.88-2.12-2.19-4.74-3.9-6.89-6.07-1.46-1.48-2.61-3.32-3.69-5.13-1.12-1.87-1.9-3.93-2.99-5.82-1.52-2.63-1.02-5.47-1.14-8.27-.1-2.38,1.61-2.93,3.23-3.52,1.52-.55,3.16-.77,4.71-1.26,3.11-.98,6.32-1.77,9.26-3.14,4.75-2.21,9.33-4.76,13.93-7.28,2.17-1.19,4.26-2.55,6.27-3.99,.91-.66,1.4-1.91,2.31-2.58,5.01-3.67,8.69-8.46,11.87-13.69,.47-.78,.87-1.65,1.05-2.53,.08-.38-.4-1.14-.79-1.29-1.26-.47-2.57-.84-3.9-1.05-3.29-.52-6.58-1.09-9.89-1.35-4.81-.38-9.65-.62-14.47-.66-1.08,0-2.27,.91-3.22,1.64-3.4,2.61-5.3,6.47-7.83,9.8-1.06,1.4-1.61,3.19-2.44,4.77-1.44,2.77-3.01,5.47-4.34,8.29-2.06,4.36-3.92,8.81-5.94,13.19-.78,1.69-1.78,3.26-2.63,4.92-.47,.91-.81,1.89-1.24,2.82-1.16,2.51-2.38,4.99-3.48,7.52-1.35,3.12-2.69,6.25-3.88,9.43-.9,2.41-1.55,4.91-2.31,7.37-.76,2.45-1.53,4.91-2.3,7.36-.13,.43-.31,.85-.37,1.29-.31,2.16-.83,4.32-.8,6.48,.04,2.54,.41,5.09,.92,7.59,.61,3.04-.49,5.16-3.52,5.67-.75,.13-1.71-.51-2.47-.96-3.42-2-7.32-3.63-7.84-8.3-.33-2.91-.81-5.9-.5-8.78,.52-4.83,1.35-9.67,2.55-14.38,1.03-4.03,2.74-7.88,4.2-11.8,1.1-2.95,2.22-5.91,3.46-8.81,1.22-2.84,2.56-5.64,3.92-8.42,.64-1.32,1.49-2.53,2.17-3.83,1.11-2.11,2.08-4.29,3.24-6.37,1.27-2.26,2.75-4.41,4.03-6.67,1.92-3.38,3.72-6.83,5.61-10.23,1.74-3.11,3.55-6.18,5.29-9.29,.32-.57,.46-1.24,.67-1.86,.79-2.29,1.11-4.95,2.51-6.77,1.33-1.73,3.65-3.25,5.78-3.7,4.38-.93,8.93-1.48,13.4-1.45,4.62,.04,9.28,.71,13.85,1.55,5.85,1.07,11.76,2.14,17.38,4.02,5.16,1.73,8.71,6.02,9.2,11.86,.1,1.17-.54,2.49-1.12,3.6-1.22,2.37-2.4,4.8-4,6.91-2.17,2.86-4.51,5.66-7.14,8.07-3.3,3.02-6.85,5.81-10.52,8.37-3.27,2.29-6.83,4.19-10.3,6.2-2.78,1.61-5.63,3.1-8.42,4.69-2.59,1.47-5.18,2.96-7.71,4.54-.89,.55-1.6,1.38-2.56,2.24Z"/>
      <path d="M460.19,284.24s.02-.07,.04-.1c1.65-4.73,4.45-9.55,6.97-13.85,1.62-2.76,2.83-5.75,4.28-8.61,.33-.65,.91-1.17,1.31-1.79,1.11-1.71,2.17-3.44,3.27-5.16,1.58-2.47,2.35-5.36,5.02-7.27,1.99-1.42,3.23-3.88,4.92-5.76,3.17-3.54,5.23-7.95,9.29-10.83,2.38-1.69,4.8-3.12,7.54-3.67,2.32-.46,4.85-.37,7.21,0,6.7,1.04,10.58,5.47,13,11.47,2.69,6.69,2.22,13.69,1.54,20.58-.82,8.27-2.13,16.49-3.51,24.69-.5,2.95-1.91,5.74-2.69,8.66-1.15,4.3-3.93,7.59-6.46,11.05-.28,.38-.63,.71-.97,1.04-3,2.82-6.03,5.6-9,8.45-1.73,1.66-3.21,3.61-5.07,5.1-1.54,1.24-3.46,2.01-5.24,2.94-4.12,2.14-8.16,4.45-12.4,6.3-4.91,2.15-10.03,3.81-14.99,5.85-1.49,.61-2.94,1.58-4.08,2.72-2.21,2.2-4.29,4.79-7.79,3.91-3.3-.83-7.44,.04-9.49-3.73-4.44-8.21,1.03-18.04,5.63-25.14,2.12-3.28,4.71-6.26,6.48-9.74,2.72-5.37,3.26-11.45,5.21-17.08Zm47.31-42.91c-3.58,1.17-6.96,3.48-8.71,5.64-4.07,5.04-7.38,10.55-10.28,16.33-1.05,2.1-2.39,4.06-3.49,6.14-1.04,1.96-1.98,3.99-2.88,6.02-.54,1.21-.59,2.89-1.48,3.64-1.76,1.49-2.38,3.51-3.28,5.39-1.58,3.31-2.96,6.72-4.49,10.06-1.12,2.44-2.74,4.73-3.4,7.28-.68,2.65-1.67,5.04-2.94,7.43-.87,1.63-1.15,3.56-1.7,5.36l.67,.44c2.44-1.23,4.94-2.35,7.3-3.72,3.36-1.95,6.45-4.45,9.97-6.04,2.85-1.29,4.85-3.36,6.91-5.42,2.66-2.67,5.02-5.63,7.57-8.41,1.28-1.4,3.09-2.46,3.92-4.06,1.44-2.77,2.53-5.79,3.37-8.81,.76-2.73,.94-5.62,1.47-8.42,.3-1.58,.98-3.1,1.17-4.68,.49-4.23,.44-8.56,1.29-12.71,.81-3.98-.27-7.56-.98-11.45Z"/>
      <path d="M16.47,259.31c.84-2.36,1.5-4.02,2.01-5.72,.92-3.07,2.78-5.7,3.31-9.06,.5-3.19,2.7-6.09,4.03-9.18,.83-1.94,1.27-4.06,2.17-5.96,1.6-3.39,3.28-6.77,5.24-9.96,.54-.88,2.2-1.48,3.35-1.48,2.19,0,4.13-1.61,6.56-.53,1.19,.53,2.95-.14,4.44-.38,2.64-.43,5.26-.96,7.89-1.41,.66-.11,1.5,.16,2.01-.16,3.66-2.29,7.75-1.68,11.73-2.13,7.87-.91,15.71-.59,23.57-.39,2.75,.07,5.53,0,8.24,.41,1.8,.27,3.52,1.2,5.24,1.93,2.59,1.1,5.15,2.24,7.7,3.42,1.61,.75,2.7,1.95,2.31,3.85-.38,1.82-1.61,2.38-3.49,2.66-2.69,.39-5.14-.47-7.7-.67-2.18-.17-4.39,.18-6.58,.19-2.56,0-5.13-.18-7.69-.19-2.75-.01-5.52-.08-8.25,.17-2.81,.26-5.61,1.36-8.38,1.23-3.64-.17-6.89,1.06-10.3,1.73-1.38,.27-2.68,.89-4.04,1.3-1.91,.58-3.96,.86-5.7,1.74-1.95,.99-3.62,2.51-5.41,3.8-.27,.19-.49,.45-.76,.64-2.56,1.75-4.26,4.22-5.62,6.91-1.14,2.27-2.01,4.67-3.05,6.99-.81,1.79-1.76,3.52-2.51,5.33-.23,.56-.21,1.4,.05,1.94,.14,.29,1.04,.29,1.59,.27,3.48-.12,6.96-.25,10.44-.43,1.13-.06,2.25-.26,3.38-.37,6.58-.63,13.16-1.27,19.75-1.88,1.2-.11,2.42-.18,3.62-.11,4.21,.23,8.47,.18,12.61,.87,4.94,.82,9.94,1.71,14.47,4.12,.93,.49,2.03,.68,3.08,.91,1.63,.36,3.28,.72,3.3,2.83,.02,1.51-2.05,3.07-3.97,2.97-2.68-.13-5.37-.62-8.04-.56-8.16,.19-16.38,.08-24.47,1.02-8.37,.96-16.63,2.91-24.9,4.62-4.08,.84-8.06,2.17-12.11,3.2-1.58,.4-3.22,.55-4.82,.86-.37,.07-.92,.24-1.02,.51-1.03,2.62-3.59,4.55-3.27,7.85,.12,1.23-.83,2.57-1.33,3.85-1.04,2.63-2.38,5.18-3.08,7.89-.87,3.36-1.34,6.85-1.73,10.31-.35,3.13-.32,6.31-.55,9.46-.06,.78-.29,2-.79,2.21-1.43,.61-3.09,1.22-4.56,1.06-2.36-.27-4.18-1.58-5.38-3.93-.73-1.42-2.51-2.26-3.52-3.58-1.57-2.06-2.59-4.43-2.13-7.11,.58-3.43,1.37-6.83,1.98-10.26,.29-1.65,.34-3.33,.55-4.99,.09-.73,.12-1.6,.54-2.13,1.87-2.39,2.53-5.11,3.02-8.06,.32-1.88,1.89-3.52,2.63-5.38,.88-2.18,1.45-4.49,2.21-6.72,.38-1.1,.91-2.15,1.34-3.23,.17-.43,.27-.9,.39-1.35,.18-.75,.34-1.5,.4-1.73Z"/>
      <path d="M370.97,38.23c-2.17,.6-5.77,1.59-9.37,2.58-1.29,.35-2.57,.79-3.88,1-.56,.09-1.35-.14-1.79-.52-2.24-1.95-3.41-4.52-3.92-7.39-.21-1.19,1.95-3.72,3.37-4.08,.65-.17,1.31-.3,1.96-.49,3.18-.94,6.45-1.66,9.51-2.9,3.31-1.35,6.63-.87,9.9-.54,2.3,.23,4.52,1.25,6.77,1.93,2.31,.7,4.63,1.37,6.91,2.15,3.5,1.2,6.2,3.6,8.97,5.95,3.42,2.9,5.74,6.64,7.72,10.47,1.46,2.82,1.55,6.24,.8,9.5-.98,4.3-2.63,8.31-5.28,11.86-2.64,3.54-5.14,7.21-8.09,10.48-1.66,1.84-4.11,2.98-6.19,4.44-1.82,1.27-3.59,2.63-5.46,3.82-3.58,2.28-7.18,4.53-10.85,6.65-1.83,1.05-2.44,2.27-.99,3.94,2.28,2.62,4.63,5.26,7.34,7.39,4.97,3.89,10.73,6.51,16.76,8.25,3.33,.96,6.95,.83,10.41,1.39,2.84,.45,5.63,1.19,8.44,1.79,.77,.16,1.55,.25,2.32,.41,2.6,.55,5.42,.89,7.05,3.23,.81,1.16,1.11,2.85,1.16,4.31,.05,1.29-.63,2.25-2.38,2.41-3.65,.32-7.26,1.4-10.9,1.46-5.23,.08-10.59,.08-15.68-.93-4.22-.84-8.59-2.05-12.34-4.49-7.32-4.77-14.6-9.62-20.79-15.86-1.18-1.18-2.06-2.68-3-4.08-1.3-1.95-2.77-3.83-3.73-5.95-.94-2.07-1.51-4.36-1.9-6.61-.39-2.26-.86-4.67,.91-6.7,.28-.32,.54-.92,.83-.94,1.65-.1,3.32-.13,4.98-.05,3.22,.16,6.33,.29,9.51-.88,5.62-2.08,9.63-6.2,13.87-10.06,2.08-1.89,4.34-3.79,5.81-6.13,2.11-3.37,3.72-7.07,5.25-10.76,1.14-2.76-.2-6.63-2.58-8.54-5.81-4.64-12.33-7.4-21.44-7.51Z"/>
      <path d="M314.23,159.87c.46-2.82,.97-6.42,1.63-9.99,.97-5.28,1.89-10.57,3.11-15.79,1.06-4.5,2.42-8.94,3.81-13.36,1.64-5.21,3.52-10.35,5.19-15.55,1.68-5.22,3.06-10.54,4.87-15.71,1.67-4.76,3.71-9.39,5.62-14.06,1.16-2.85,2.26-5.73,3.59-8.5,1.56-3.26,3.11-6.56,5.11-9.55,.84-1.26,2.76-1.84,4.25-2.62,2.91-1.53,5.95-.95,8.01,1.55,.31,.38,.38,1.22,.2,1.71-.89,2.33-1.92,4.6-2.88,6.9-1.44,3.43-2.81,6.88-4.31,10.28-1.67,3.82-3.66,7.52-5.12,11.41-1.72,4.58-3.01,9.33-4.54,13.98-.71,2.17-1.59,4.29-2.34,6.46-2.07,5.97-4.32,11.89-6.1,17.94-1.79,6.07-3.18,12.26-4.6,18.43-.85,3.66-1.39,7.4-2.12,11.09-.44,2.21-1,4.39-1.44,6.6-.15,.71-.22,1.47-.15,2.19,.26,2.58-1.28,4.32-2.74,6.11-.12,.14-.33,.24-.52,.28-1.73,.38-4.88-1.35-6.19-2.57-1.98-1.84-2.35-4.02-2.33-7.23Z"/>
    </g>
  </g>
</svg>