<?xml version="1.0" encoding="UTF-8"?>
<svg id="Layer_2" data-name="Layer 2" xmlns="http://www.w3.org/2000/svg" viewBox="0 0 61.13 58.3">
  <defs>
    <style>
      .cls-1 {
        fill: #eb4746;
      }
    </style>
  </defs>
  <g id="Layer_1-2" data-name="Layer 1">
    <path class="cls-1" d="M59.42,30.47c-4.87,.43-8.75,.82-13.61,1.3-2.3,.23-4.58,.65-7.33,1.04,.61,.99,1.01,1.75,1.52,2.43,3.05,4.06,6.16,8.08,9.18,12.17,.42,.57,.44,1.43,.65,2.15-.8-.15-1.78-.07-2.38-.5-3.98-2.88-7.88-5.87-11.82-8.81-.71-.53-1.47-1.01-2.66-1.83-.35,2.11-.66,3.77-.9,5.44-.56,3.96-1.03,7.93-1.68,11.87-.15,.91-.89,1.72-1.36,2.57-.42-.81-1.06-1.58-1.21-2.44-.95-5.57-1.8-11.15-2.74-17.14-.84,.49-1.47,.78-2.01,1.19-3.87,2.89-7.7,5.84-11.61,8.66-.83,.6-1.96,.79-2.95,1.16,.37-1.06,.53-2.27,1.15-3.15,2.66-3.73,5.46-7.36,8.19-11.03,.48-.65,.9-1.34,1.67-2.49-3.32-.53-6.22-1.02-9.13-1.46-2.8-.43-5.62-.74-8.39-1.26-.72-.14-1.33-.89-1.98-1.37,.66-.37,1.29-.96,2-1.07,5.75-.88,11.51-1.67,17.74-2.55-.68-1.04-1.12-1.78-1.63-2.47-2.93-3.94-5.92-7.85-8.78-11.84-.53-.74-.57-1.82-.83-2.74,.86,.29,1.86,.39,2.55,.9,3.9,2.84,7.73,5.79,11.6,8.69,.7,.53,1.47,.98,2.64,1.75,.73-5.05,1.4-9.62,2.06-14.2,.18-1.24,.25-2.5,.55-3.7,.15-.63,.69-1.16,1.05-1.74,.46,.57,1.23,1.1,1.33,1.73,.8,5.02,1.46,10.05,2.18,15.08,.11,.79,.32,1.57,.57,2.76,1.13-.75,1.96-1.24,2.73-1.82,3.8-2.85,7.55-5.76,11.39-8.55,.7-.51,1.71-.6,2.57-.88-.23,.85-.24,1.87-.73,2.54-2.88,3.98-5.88,7.87-8.83,11.81-.53,.71-1.02,1.46-2.03,2.9,7.84,.84,14.06,1.62,21.28,2.4,.72,.4,1.13,.78,1.72,1.18-.71,.56-.98,.87-1.72,1.32Z"/>
  </g>
</svg>